<?xml version="1.0" encoding="utf-8"?>
<!-- Generator: Adobe Illustrator 18.1.1, SVG Export Plug-In . SVG Version: 6.00 Build 0)  -->
<!DOCTYPE svg PUBLIC "-//W3C//DTD SVG 1.1//EN" "http://www.w3.org/Graphics/SVG/1.1/DTD/svg11.dtd">
<svg version="1.1" id="SemiBold" xmlns="http://www.w3.org/2000/svg" xmlns:xlink="http://www.w3.org/1999/xlink" x="0px" y="0px"
	 viewBox="18.3 201.3 562.1 192.4" enable-background="new 18.3 201.3 562.1 192.4" xml:space="preserve">
<path stroke="#FFFFFF" stroke-width="1.5" stroke-miterlimit="10" d="M580.4,366c0,17-12.5,27.7-29.5,27.7H49.2
	c-17,0-30.8-13.9-30.8-30.8V232.2c0-17,13.9-30.8,30.8-30.8h501.4c17,0,29.5,13.9,29.5,30.8V366H580.4z"/>
<g>
	<g>
		<path fill="#FFFFFF" d="M402.4,339.6l-4.2,3.9c-1,0.5-1.8,1-2.9,1.6c-2.9,1.3-6,1.6-8.6,1.6c-2.9,0-7.3-0.3-11.8-3.4
			c-6.3-4.4-8.9-12-8.9-18.6c0-13.6,11.2-20.4,20.1-20.4c3.1,0,6.5,0.8,9.2,2.4c4.4,2.9,5.5,6.8,6.3,8.6l-20.7,8.4l-6.8,0.5
			c2.1,11.2,9.7,17.8,18.3,17.8C396.3,342.2,399.5,340.9,402.4,339.6C402.4,339.3,402.9,339.1,402.4,339.6z M389.8,317.1
			c1.6-0.5,2.6-1,2.6-2.4c0-3.4-3.9-7.6-8.6-7.6c-3.4,0-10.2,2.6-10.2,12.3c0,1.6,0.3,3.1,0.3,4.7L389.8,317.1z"/>
		<path fill="#FFFFFF" d="M359,338.8c0,3.4,0.5,3.9,3.4,4.2c1.6,0.3,3.1,0.3,4.4,0.5l-3.1,1.8h-15.4c2.1-2.6,2.4-2.9,2.4-4.7v-2.1
			V286h-6.8l6.5-3.1h12.5c-2.6,1.6-3.7,2.6-3.9,5.8V338.8z"/>
		<path fill="#FFFFFF" d="M334.9,308.8c2.1,1.6,6.3,5.2,6.3,12c0,6.5-3.7,9.7-7.3,12.5c-1,1-2.4,2.4-2.4,4.4c0,1.8,1.3,3.1,2.4,3.9
			l3.1,2.4c3.9,3.4,7.3,6.3,7.3,12.3c0,8.4-8.1,16.7-23.3,16.7c-12.8,0-19.1-6-19.1-12.5c0-3.1,1.6-7.6,6.8-10.7
			c5.5-3.4,12.8-3.9,16.7-3.9c-1.3-1.6-2.6-3.4-2.6-6c0-1.6,0.5-2.4,0.8-3.4c-1,0-1.8,0.3-2.9,0.3c-9.4,0-14.6-7.1-14.6-13.9
			c0-4.2,1.8-8.6,5.8-11.8c5-4.2,11-5,15.7-5h18.3l-5.8,3.1h-5.2V308.8z M328.6,347.7c-0.8,0-1,0-2.1,0c-0.8,0-5.5,0.3-9.2,1.3
			c-1.8,0.8-7.6,2.9-7.6,9.2c0,6.3,6,10.7,15.4,10.7c8.4,0,13.1-4.2,13.1-9.4C338.3,355,335.4,352.7,328.6,347.7z M331.2,331
			c2.1-2.1,2.1-5,2.1-6.5c0-6.3-3.7-16.2-11.2-16.2c-2.4,0-4.7,1-6.3,2.9c-1.6,1.8-1.8,4.2-1.8,6.5c0,6,3.4,15.7,11,15.7
			C327.6,333.6,329.9,332.5,331.2,331z"/>
		<path fill="#FFFFFF" d="M280.3,346.7c-14.1,0-21.4-11-21.4-20.9c0-11.5,9.4-21.4,22.7-21.4c13.1,0,21.2,10.2,21.2,20.9
			C302.7,335.7,294.6,346.7,280.3,346.7z M291.2,339.3c2.1-2.9,2.6-6.3,2.6-9.7c0-7.8-3.7-22.5-14.6-22.5c-2.9,0-5.8,1-7.8,2.9
			c-3.4,3.1-4.2,7.1-4.2,10.7c0,8.6,4.2,23,14.9,23C285.8,344.1,289.2,342.2,291.2,339.3z"/>
		<path fill="#FFFFFF" d="M233.2,346.7c-14.1,0-21.4-11-21.4-20.9c0-11.5,9.4-21.4,22.7-21.4c13.1,0,21.2,10.2,21.2,20.9
			C255.7,335.7,247.6,346.7,233.2,346.7z M244.4,339.3c2.1-2.9,2.6-6.3,2.6-9.7c0-7.8-3.7-22.5-14.6-22.5c-2.9,0-5.8,1-7.8,2.9
			c-3.4,3.1-4.2,7.1-4.2,10.7c0,8.6,4.4,23,14.9,23C238.7,344.1,242.4,342.2,244.4,339.3z"/>
		<path fill="#FFFFFF" d="M206.3,343.5l-11.8,2.6c-4.7,0.8-9.2,1.3-13.6,1.3c-22.7,0-31.6-16.7-31.6-30.1
			c0-15.9,12.3-30.8,33.5-30.8c4.4,0,8.6,0.8,12.5,1.8c6.3,1.8,9.2,3.9,11,5.2l-6.8,6.5l-2.9,0.5l2.1-3.4c-2.9-2.6-7.8-7.8-17.8-7.8
			c-13.1,0-23,9.9-23,24.3c0,15.4,11.2,30.1,29.3,30.1c5.2,0,8.1-1,10.5-2.1v-13.3l-12.5,0.8l6.5-3.7h17.5l-2.1,2.1
			c-0.5,1-0.5,1.3-0.8,1.8c0,0.8-0.3,3.1-0.3,3.9v10.2H206.3z"/>
	</g>
	<g>
		<path fill="#FFFFFF" d="M428,339.9v22.5h-4.4v-57.3h4.4v6.5c2.9-4.2,8.1-7.6,14.4-7.6c11,0,18.6,8.4,18.6,21.7
			c0,13.1-7.6,21.7-18.6,21.7C436.3,347.7,431.1,344.6,428,339.9z M455.9,325.8c0-9.9-5.2-17.8-14.4-17.8c-5.8,0-11.2,4.4-13.6,8.4
			v18.3c2.4,3.9,7.8,8.6,13.6,8.6C450.7,343.5,455.9,335.9,455.9,325.8z"/>
		<path fill="#FFFFFF" d="M466.9,346.7v-57.3h4.4v57.3H466.9z"/>
		<path fill="#FFFFFF" d="M521.3,358.7c1,0.5,2.6,0.8,3.7,0.8c2.6,0,4.7-1,6.3-5l3.1-7.3l-17.5-41.8h5l15.2,36.1l14.9-36.1h5
			l-21.2,50.2c-2.4,5.2-5.8,7.6-10.5,7.6c-1.6,0-3.4-0.3-4.4-0.5L521.3,358.7z"/>
		<path fill="#FFFFFF" d="M508.2,346.4c-0.3-1.3-0.5-2.6-0.8-3.7c-0.3-1-0.3-2.1-0.3-3.1c-1.6,2.4-3.7,4.2-6.5,5.5
			c-2.9,1.6-5.5,2.1-8.9,2.1c-4.4,0-7.8-1-10.2-3.1s-3.7-5.2-3.7-8.9s1.8-6.8,5.2-9.2c3.4-2.4,8.1-3.4,13.6-3.4h10.5v-5.2
			c0-2.9-1-5.2-3.1-7.1c-2.1-1.6-5-2.6-8.6-2.6c-3.4,0-6,0.8-8.1,2.4c-2.1,1.6-3.1,3.4-3.1,5.8h-4.4v-0.3c-0.3-3.1,1.3-5.8,4.2-8.4
			c3.1-2.4,7.1-3.7,11.8-3.7c5,0,8.9,1,11.8,3.4c2.9,2.4,4.4,5.8,4.4,9.9v20.4c0,1.6,0,2.9,0.3,4.2c0.3,1.3,0.5,2.9,0.8,4.2h-4.7
			V346.4z M492.5,343.3c3.9,0,6.5-0.8,9.4-2.6c2.9-1.6,4.7-3.9,5.8-6.5v-7.8h-10.5c-3.9,0-7.3,0.8-9.9,2.6c-2.6,1.8-3.9,3.9-3.9,6.5
			c0,2.4,0.8,4.2,2.6,5.8C487.3,342.5,489.7,343.3,492.5,343.3z"/>
	</g>
</g>
<g>
	<polygon fill="none" points="91,323.4 105.4,309.3 105.4,309.3 91,323.4 45.2,277.9 45.2,277.9 91,323.4 45.2,369.4 45.2,369.4 
		91,323.4 105.4,337.8 105.4,337.8 	"/>
	
		<linearGradient id="SVGID_1_" gradientUnits="userSpaceOnUse" x1="519.5869" y1="1033.0227" x2="496.5105" y2="1047.465" gradientTransform="matrix(1.8486 1.8486 1.8486 -1.8486 -2788.8381 1268.9679)">
		<stop  offset="0" style="stop-color:#D6FFA1"/>
		<stop  offset="0.3264" style="stop-color:#93E2A7"/>
		<stop  offset="1" style="stop-color:#00A3B5"/>
	</linearGradient>
	<path fill="url(#SVGID_1_)" d="M105.4,309.3l-55.9-30.8c-1.6-0.8-3.1-1-4.2-0.8L91,323.4L105.4,309.3z"/>
	
		<linearGradient id="SVGID_2_" gradientUnits="userSpaceOnUse" x1="506.1679" y1="1045.3861" x2="536.0876" y2="1037.5648" gradientTransform="matrix(1.8486 1.8486 1.8486 -1.8486 -2788.8381 1268.9679)">
		<stop  offset="0" style="stop-color:#FF177B"/>
		<stop  offset="0.6721" style="stop-color:#FFA976"/>
		<stop  offset="1" style="stop-color:#FFEC73"/>
	</linearGradient>
	<path fill="url(#SVGID_2_)" d="M105.4,337.8l19.1-10.5c3.9-2.1,3.9-5.5,0-7.8L105.4,309L91,323.4L105.4,337.8z"/>
	
		<linearGradient id="SVGID_3_" gradientUnits="userSpaceOnUse" x1="522.8206" y1="1021.9811" x2="490.3766" y2="1041.0692" gradientTransform="matrix(1.8486 1.8486 1.8486 -1.8486 -2788.8381 1268.9679)">
		<stop  offset="0" style="stop-color:#63FFD4"/>
		<stop  offset="0.4854" style="stop-color:#32A0BA"/>
		<stop  offset="0.8349" style="stop-color:#1262A9"/>
		<stop  offset="1" style="stop-color:#064AA2"/>
	</linearGradient>
	<path fill="url(#SVGID_3_)" d="M45.2,277.9c-1.6,0.5-2.9,2.4-2.9,5v81.8c0,2.6,1,4.2,2.6,4.7l45.8-45.8L45.2,277.9z"/>
	
		<linearGradient id="SVGID_4_" gradientUnits="userSpaceOnUse" x1="534.6887" y1="1037.16" x2="514.7122" y2="1010.8419" gradientTransform="matrix(1.8486 1.8486 1.8486 -1.8486 -2788.8381 1268.9679)">
		<stop  offset="0" style="stop-color:#FF4521"/>
		<stop  offset="0.3411" style="stop-color:#D43E65"/>
		<stop  offset="0.7935" style="stop-color:#9F36B9"/>
		<stop  offset="1" style="stop-color:#8A33DB"/>
	</linearGradient>
	<path fill="url(#SVGID_4_)" d="M45.2,369.4c1.3,0.5,2.6,0.3,4.2-0.8l55.9-30.6L91,323.7L45.2,369.4z"/>
</g>
<g>
	<g>
		<path fill="#FFFFFF" d="M149,242.6c0-8.9,6.5-14.4,14.6-14.4c5.5,0,8.9,2.6,11.2,5.8l-3.9,2.4c-1.6-2.1-4.2-3.7-7.3-3.7
			c-5.5,0-9.7,4.2-9.7,10.2c0,5.8,4.2,10.2,9.7,10.2c2.9,0,5.2-1.3,6.5-2.6v-4.7h-8.1v-4.2h13.1V252c-2.6,3.1-6.5,5.2-11.5,5.2
			C155.6,257,149,251.2,149,242.6z"/>
		<path fill="#FFFFFF" d="M181.2,256.5v-28h19.1v4.2h-14.1v7.3H200v4.2h-13.9v7.8h14.1v4.2h-19.1V256.5z"/>
		<path fill="#FFFFFF" d="M213.9,256.5v-23.5h-8.4v-4.2h21.7v4.2h-8.4v23.5H213.9z"/>
		<path fill="#FFFFFF" d="M244.2,256.5v-28h5v28C249.2,256.5,244.2,256.5,244.2,256.5z"/>
		<path fill="#FFFFFF" d="M262.7,256.5v-23.5h-8.4v-4.2h21.7v4.2h-8.4v23.5H262.7z"/>
		<path fill="#FFFFFF" d="M292,242.6c0-8.4,6-14.4,14.4-14.4c8.4,0,14.4,6,14.4,14.4s-6,14.4-14.4,14.4
			C297.8,257,292,250.7,292,242.6z M315.6,242.6c0-5.8-3.7-10.2-9.2-10.2c-5.8,0-9.2,4.2-9.2,10.2c0,5.8,3.7,10.2,9.2,10.2
			C311.9,252.5,315.6,248.1,315.6,242.6z"/>
		<path fill="#FFFFFF" d="M345.6,256.5L331,236.6v19.9h-5v-28h5l14.4,19.3v-19.3h5v28C350.3,256.5,345.6,256.5,345.6,256.5z"/>
	</g>
</g>
</svg>
